# xmcd
# Copyright (C) 1995-1998 Ti Kan
#
# Track frame offsets:
#       150
#       19550
#       33867
#       47520
#       58088
#       69558
#       80014
#       93412
#       109615
#
# Disc length: 1631 seconds
#
# Revision: 0
# Processed by: cddbd v1.5.2PL0 Copyright (c) Steve Scherf et al.
# Submitted via: CD-Import v1.0
#
DISCID=69065d09
DTITLE=Postdata - Postdata
DYEAR=10
DGENRE=
TTITLE0=Lazarus
TTITLE1=In Chemicals
TTITLE2=Tracers
TTITLE3=Paranoid Clusters
TTITLE4=Eclipse
TTITLE5=Tobias Grey
TTITLE6=Warning
TTITLE7=Drift
TTITLE8=The Coroner
EXTD=
EXTT0=
EXTT1=
EXTT2=
EXTT3=
EXTT4=
EXTT5=
EXTT6=
EXTT7=
EXTT8=
PLAYORDER=
